<svg xmlns="http://www.w3.org/2000/svg" viewBox="0 0 1144.9 130.19">
    <defs>
        <style>.cls-1{fill:#fff;}.cls-2{fill:#17a6c9;}.cls-3{fill:#f6e748;}.cls-4{fill:#f16079;}.cls-5{font-size:106.71px;fill:#fff;font-family:ProximaNova;font-weight:600;letter-spacing:0.1em;}.cls-6{letter-spacing:0.07em;}.cls-7{letter-spacing:0.05em;}</style>
    </defs>
    <g id="Layer_2" data-name="Layer 2">
        <g id="Layer_1-2" data-name="Layer 1">
            <polygon class="cls-1" points="108.51 62.65 72.34 0 36.17 62.65 0 125.29 33.66 125.29 36.17 120.96 41.17 112.3 85.43 112.41 68.64 83.27 57.95 83.22 72.34 58.31 108.51 120.96 111.01 125.29 144.68 125.29 108.51 62.65"/>
            <polygon class="cls-2" points="183.35 0 111.01 125.29 144.68 125.29 200.36 29.47 183.35 0"/>
            <polygon class="cls-3" points="183.31 0.09 255.64 125.38 221.98 125.38 166.29 29.56 183.31 0.09"/>
            <polygon class="cls-4" points="222.02 125.38 255.69 125.38 311.19 29.24 294.36 0.09 222.02 125.38"/>
            <text class="cls-5" transform="translate(357.29 109.28)">AD<tspan class="cls-6" x="169.13" y="0">-</tspan>
                <tspan x="208.08" y="0">WE</tspan>
                <tspan class="cls-7" x="387.67" y="0">A</tspan>
                <tspan x="464.93" y="0">VE.IO</tspan>
            </text>
        </g>
    </g>
</svg>