<svg xmlns="http://www.w3.org/2000/svg" viewBox="0 0 592.92 238.89"><defs><style>.cls-1{fill:#fff;}.cls-2{fill:#17a6c9;}.cls-3{fill:#f6e748;}.cls-4{fill:#f16079;}</style></defs><g id="Layer_2" data-name="Layer 2"><g id="Layer_1-2" data-name="Layer 1"><polygon class="cls-1" points="206.74 119.36 137.83 0 68.91 119.36 0 238.72 64.14 238.72 68.91 230.46 78.43 213.97 162.76 214.16 130.77 158.66 110.42 158.56 137.83 111.1 206.74 230.46 211.51 238.72 275.65 238.72 206.74 119.36"/><polygon class="cls-2" points="349.34 0 211.51 238.72 275.65 238.72 381.75 56.15 349.34 0"/><polygon class="cls-3" points="349.25 0.17 487.08 238.89 422.94 238.89 316.84 56.31 349.25 0.17"/><polygon class="cls-4" points="423.02 238.89 487.16 238.89 592.92 55.72 560.85 0.17 423.02 238.89"/></g></g></svg>